<?xml version="1.0" encoding="UTF-8" standalone="no"?>
<!-- Generator: Adobe Illustrator 19.2.1, SVG Export Plug-In . SVG Version: 6.00 Build 0)  -->

<svg
   version="1.1"
   id="Ebene_1"
   x="0px"
   y="0px"
   viewBox="0 0 1380.9 391.10001"
   xml:space="preserve"
   width="1380.9"
   height="391.10001"
   xmlns="http://www.w3.org/2000/svg"
   xmlns:svg="http://www.w3.org/2000/svg"><defs
   id="defs30" />
<style
   type="text/css"
   id="style1">
	.st0{fill:#3070B3;}
	.st1{fill:#FFFFFF;}
</style>

<g
   id="g30"
   transform="translate(-909,-100)">
	<polygon
   class="st1"
   points="1049,490 1049,170 1129,170 1129,490 1349,490 1349,170 1429,170 1429,490 1499,490 1499,170 1579,170 1579,490 1649,490 1649,100 1279,100 1279,420 1199,420 1199,100 909,100 909,170 979,170 979,490 "
   id="polygon2" />
	<g
   id="g29"
   transform="translate(1644.2)">
		<g
   id="g20">
			<path
   class="st1"
   d="M 130.6,110 H 101 v -10 h 71.1 v 10 h -29.6 v 79 h -11.8 v -79 z"
   id="path2" />
			<path
   class="st1"
   d="m 222.1,168.5 c -1.4,7.1 -4.5,12.6 -9.4,16.3 -4.8,3.7 -10.9,5.6 -18.2,5.6 -5.2,0 -9.6,-0.9 -13.4,-2.6 -3.8,-1.7 -7,-4 -9.5,-7 -2.6,-3 -4.5,-6.6 -5.8,-10.7 -1.3,-4.2 -2,-8.7 -2.2,-13.6 0,-4.8 0.7,-9.3 2.2,-13.4 1.5,-4.1 3.6,-7.7 6.3,-10.7 2.7,-3 5.9,-5.3 9.6,-7 3.7,-1.7 7.7,-2.5 12.1,-2.5 5.7,0 10.5,1.2 14.3,3.6 3.8,2.4 6.8,5.4 9.1,9 2.3,3.7 3.9,7.6 4.7,12 0.9,4.3 1.2,8.4 1.1,12.3 h -48.2 c -0.1,2.8 0.2,5.5 1,8 0.7,2.5 2,4.8 3.6,6.7 1.7,2 3.8,3.5 6.4,4.7 2.6,1.2 5.6,1.7 9.1,1.7 4.4,0 8.1,-1 11,-3.1 2.9,-2.1 4.8,-5.2 5.7,-9.5 h 10.5 z m -10.4,-17.9 c -0.2,-2.5 -0.7,-4.9 -1.7,-7.1 -1,-2.2 -2.2,-4.2 -3.9,-5.8 -1.6,-1.6 -3.6,-2.9 -5.8,-3.9 -2.2,-1 -4.7,-1.4 -7.2,-1.4 -2.7,0 -5.2,0.5 -7.4,1.4 -2.2,1 -4.1,2.3 -5.7,3.9 -1.6,1.7 -2.8,3.6 -3.7,5.8 -0.9,2.2 -1.5,4.5 -1.6,7 h 37 z"
   id="path3" />
			<path
   class="st1"
   d="m 278.3,145.2 c -0.8,-4.1 -2.6,-7.2 -5.3,-9.5 -2.7,-2.2 -6.2,-3.4 -10.7,-3.4 -3.8,0 -7,0.7 -9.6,2.1 -2.6,1.4 -4.6,3.3 -6.2,5.6 -1.5,2.3 -2.6,5 -3.3,8 -0.7,3 -1,6.2 -1,9.4 0,3 0.4,5.9 1.1,8.7 0.7,2.8 1.8,5.3 3.3,7.5 1.5,2.2 3.4,4 5.8,5.3 2.4,1.3 5.3,2 8.7,2 5.1,0 9.2,-1.4 12.2,-4.2 3,-2.8 4.8,-6.6 5.5,-11.5 h 10.8 c -1.2,7.9 -4.2,14 -9,18.4 -4.8,4.4 -11.3,6.6 -19.4,6.6 -4.9,0 -9.2,-0.8 -13,-2.4 -3.8,-1.6 -6.9,-3.9 -9.5,-6.8 -2.5,-2.9 -4.4,-6.4 -5.7,-10.4 -1.3,-4 -1.9,-8.4 -1.9,-13.3 0,-4.8 0.6,-9.3 1.9,-13.5 1.2,-4.2 3.1,-7.8 5.7,-11 2.5,-3.1 5.7,-5.6 9.5,-7.3 3.8,-1.8 8.2,-2.7 13.4,-2.7 3.7,0 7.1,0.4 10.3,1.3 3.2,0.9 6,2.2 8.5,4 2.5,1.8 4.5,4.1 6,6.9 1.5,2.8 2.5,6.1 2.9,9.9 h -11 z"
   id="path4" />
			<path
   class="st1"
   d="m 302.1,100 h 10.6 v 34 h 0.2 c 0.8,-1.9 2,-3.6 3.6,-5 1.5,-1.4 3.2,-2.6 5,-3.4 1.8,-0.9 3.8,-1.5 5.8,-1.9 2,-0.4 4,-0.6 5.9,-0.6 4.2,0 7.8,0.6 10.6,1.7 2.8,1.2 5.1,2.8 6.9,4.9 1.7,2.1 3,4.5 3.7,7.4 0.7,2.9 1.1,6 1.1,9.5 V 189 h -10.6 v -43.6 c 0,-4 -1.2,-7.1 -3.5,-9.5 -2.3,-2.3 -5.5,-3.5 -9.6,-3.5 -3.2,0 -6,0.5 -8.4,1.5 -2.4,1 -4.3,2.4 -5.9,4.2 -1.6,1.8 -2.8,4 -3.6,6.4 -0.8,2.5 -1.2,5.1 -1.2,8 v 36.4 h -10.6 z"
   id="path5" />
			<path
   class="st1"
   d="m 371.9,124.5 h 10 v 10.2 h 0.2 c 2.2,-4 5.1,-6.9 8.7,-8.8 3.5,-1.9 7.6,-2.9 12.3,-2.9 4.2,0 7.8,0.6 10.6,1.7 2.8,1.2 5.1,2.8 6.9,4.9 1.7,2.1 3,4.5 3.7,7.4 0.7,2.9 1.1,6 1.1,9.5 v 42.4 h -10.6 v -43.6 c 0,-4 -1.2,-7.1 -3.5,-9.5 -2.3,-2.3 -5.5,-3.5 -9.6,-3.5 -3.2,0 -6,0.5 -8.4,1.5 -2.4,1 -4.3,2.4 -5.9,4.2 -1.6,1.8 -2.8,4 -3.6,6.4 -0.8,2.5 -1.2,5.1 -1.2,8 v 36.4 H 372 v -64.3 z"
   id="path6" />
			<path
   class="st1"
   d="M 453,113 H 442.4 V 100 H 453 Z m -10.6,11.5 H 453 v 64.4 h -10.6 z"
   id="path7" />
			<path
   class="st1"
   d="m 513.8,145.2 c -0.8,-4.1 -2.6,-7.2 -5.3,-9.5 -2.7,-2.2 -6.2,-3.4 -10.7,-3.4 -3.8,0 -7,0.7 -9.6,2.1 -2.6,1.4 -4.6,3.3 -6.2,5.6 -1.5,2.3 -2.6,5 -3.3,8 -0.7,3 -1,6.2 -1,9.4 0,3 0.4,5.9 1.1,8.7 0.7,2.8 1.8,5.3 3.3,7.5 1.5,2.2 3.4,4 5.8,5.3 2.4,1.3 5.3,2 8.7,2 5.1,0 9.2,-1.4 12.2,-4.2 3,-2.8 4.8,-6.6 5.5,-11.5 h 10.8 c -1.2,7.9 -4.2,14 -9,18.4 -4.8,4.4 -11.3,6.6 -19.4,6.6 -4.9,0 -9.2,-0.8 -13,-2.4 -3.8,-1.6 -6.9,-3.9 -9.5,-6.8 -2.5,-2.9 -4.4,-6.4 -5.7,-10.4 -1.3,-4 -1.9,-8.4 -1.9,-13.3 0,-4.8 0.6,-9.3 1.9,-13.5 1.2,-4.2 3.1,-7.8 5.7,-11 2.5,-3.1 5.7,-5.6 9.5,-7.3 3.8,-1.8 8.2,-2.7 13.4,-2.7 3.7,0 7.1,0.4 10.3,1.3 3.2,0.9 6,2.2 8.5,4 2.5,1.8 4.5,4.1 6,6.9 1.5,2.8 2.5,6.1 2.9,9.9 h -11 z"
   id="path8" />
			<path
   class="st1"
   d="m 594.7,188.7 c -1.9,1.2 -4.4,1.7 -7.6,1.7 -2.7,0 -4.9,-0.8 -6.5,-2.4 -1.6,-1.6 -2.4,-4.1 -2.4,-7.6 -2.9,3.5 -6.3,6 -10.2,7.6 -3.9,1.6 -8,2.4 -12.5,2.4 -2.9,0 -5.7,-0.3 -8.3,-1 -2.6,-0.7 -4.9,-1.7 -6.8,-3.2 -1.9,-1.5 -3.4,-3.3 -4.5,-5.6 -1.1,-2.3 -1.7,-5 -1.7,-8.3 0,-3.7 0.6,-6.6 1.9,-9 1.2,-2.3 2.9,-4.2 4.9,-5.6 2,-1.4 4.4,-2.5 7,-3.3 2.6,-0.8 5.3,-1.4 8,-1.9 2.9,-0.6 5.7,-1 8.3,-1.3 2.6,-0.3 4.9,-0.7 6.9,-1.2 2,-0.5 3.6,-1.3 4.7,-2.4 1.2,-1 1.7,-2.6 1.7,-4.5 0,-2.3 -0.4,-4.2 -1.3,-5.6 -0.9,-1.4 -2,-2.5 -3.4,-3.2 -1.4,-0.7 -2.9,-1.2 -4.6,-1.5 -1.7,-0.2 -3.4,-0.4 -5,-0.4 -4.5,0 -8.2,0.9 -11.2,2.6 -3,1.7 -4.6,4.9 -4.9,9.7 h -10.6 c 0.2,-4 1,-7.4 2.5,-10.1 1.5,-2.7 3.5,-5 6,-6.7 2.5,-1.7 5.4,-2.9 8.6,-3.7 3.2,-0.7 6.6,-1.1 10.2,-1.1 2.9,0 5.8,0.2 8.7,0.6 2.9,0.4 5.5,1.3 7.8,2.6 2.3,1.3 4.2,3.1 5.6,5.4 1.4,2.3 2.1,5.4 2.1,9.1 v 33.1 c 0,2.5 0.1,4.3 0.4,5.5 0.3,1.2 1.3,1.7 2.9,1.7 1,0 2.1,-0.2 3.2,-0.6 v 8.2 z m -17.2,-33 c -1,0.7 -2.2,1.3 -3.7,1.7 -1.5,0.4 -3.1,0.8 -4.7,1.1 -1.7,0.3 -3.4,0.5 -5.3,0.7 -1.9,0.2 -3.7,0.5 -5.4,0.8 -1.7,0.3 -3.4,0.7 -5,1.2 -1.6,0.5 -2.9,1.2 -4.1,2.1 -1.2,0.9 -2.1,2 -2.8,3.3 -0.7,1.3 -1.1,3 -1.1,5 0,1.7 0.4,3.2 1.1,4.4 0.7,1.2 1.6,2.2 2.7,2.9 1.1,0.7 2.4,1.3 3.9,1.6 1.5,0.3 3.1,0.5 4.7,0.5 3.5,0 6.5,-0.5 9,-1.4 2.5,-1 4.5,-2.2 6.1,-3.6 1.6,-1.5 2.7,-3 3.5,-4.7 0.7,-1.7 1.1,-3.3 1.1,-4.8 z"
   id="path9" />
			<path
   class="st1"
   d="m 605.8,100 h 10.6 v 88.9 h -10.6 z"
   id="path10" />
			<path
   class="st1"
   d="m 179.5,307.1 c 0,11.3 -3.1,19.8 -9.2,25.6 -6.1,5.8 -14.7,8.7 -25.8,8.7 -5.7,0 -10.9,-0.7 -15.4,-2 -4.5,-1.3 -8.3,-3.4 -11.5,-6.2 -3.1,-2.8 -5.5,-6.4 -7.2,-10.7 -1.7,-4.3 -2.5,-9.4 -2.5,-15.3 v -56.8 h 11.8 v 56.8 c 0,7.9 2.1,13.9 6.4,18.1 4.3,4.2 10.4,6.2 18.2,6.2 7.6,0 13.3,-2.1 17.3,-6.2 3.9,-4.2 5.9,-10.2 5.9,-18.1 v -56.8 h 11.8 v 56.7 z"
   id="path11" />
			<path
   class="st1"
   d="m 195.4,274.8 h 10 V 285 h 0.3 c 2.2,-4 5.1,-6.9 8.7,-8.8 3.5,-1.9 7.6,-2.9 12.3,-2.9 4.2,0 7.8,0.6 10.6,1.7 2.8,1.2 5.1,2.8 6.9,4.9 1.7,2.1 3,4.5 3.7,7.4 0.7,2.9 1.1,6 1.1,9.5 v 42.4 h -10.6 v -43.6 c 0,-4 -1.2,-7.1 -3.5,-9.5 -2.3,-2.3 -5.5,-3.5 -9.6,-3.5 -3.2,0 -6,0.5 -8.4,1.5 -2.4,1 -4.3,2.4 -5.9,4.2 -1.6,1.8 -2.8,4 -3.6,6.4 -0.8,2.5 -1.2,5.1 -1.2,8 v 36.4 h -10.6 v -64.3 z"
   id="path12" />
			<path
   class="st1"
   d="m 274.7,263.2 h -10.6 v -13 h 10.6 z m -10.6,11.6 h 10.6 v 64.4 h -10.6 z"
   id="path13" />
			<path
   class="st1"
   d="m 320.1,339.2 h -11.3 l -23.9,-64.4 h 11.8 l 18.1,53.7 h 0.2 l 17.6,-53.7 h 11.1 z"
   id="path14" />
			<path
   class="st1"
   d="m 408.5,318.8 c -1.4,7.1 -4.5,12.6 -9.4,16.3 -4.8,3.7 -10.9,5.6 -18.2,5.6 -5.2,0 -9.6,-0.9 -13.4,-2.6 -3.8,-1.7 -7,-4 -9.5,-7 -2.6,-3 -4.5,-6.6 -5.8,-10.7 -1.3,-4.2 -2,-8.7 -2.2,-13.6 0,-4.8 0.7,-9.3 2.2,-13.4 1.5,-4.1 3.6,-7.7 6.3,-10.7 2.7,-3 5.9,-5.3 9.6,-7 3.7,-1.7 7.7,-2.5 12.1,-2.5 5.7,0 10.5,1.2 14.3,3.6 3.8,2.4 6.8,5.4 9.1,9 2.3,3.7 3.9,7.6 4.7,12 0.9,4.3 1.2,8.4 1.1,12.3 h -48.2 c -0.1,2.8 0.2,5.5 1,8 0.7,2.5 2,4.8 3.6,6.7 1.7,2 3.8,3.5 6.4,4.7 2.6,1.2 5.6,1.7 9.1,1.7 4.4,0 8.1,-1 11,-3.1 2.9,-2.1 4.8,-5.2 5.7,-9.5 h 10.5 z m -10.4,-17.9 c -0.2,-2.5 -0.7,-4.9 -1.7,-7.1 -1,-2.2 -2.2,-4.2 -3.9,-5.8 -1.6,-1.6 -3.6,-2.9 -5.8,-3.9 -2.2,-1 -4.7,-1.4 -7.2,-1.4 -2.7,0 -5.2,0.5 -7.4,1.4 -2.2,1 -4.1,2.3 -5.7,3.9 -1.6,1.7 -2.8,3.6 -3.7,5.8 -0.9,2.2 -1.5,4.5 -1.6,7 h 37 z"
   id="path15" />
			<path
   class="st1"
   d="m 421.2,274.8 h 10 v 13.6 h 0.2 c 2.6,-5.2 5.7,-9.1 9.5,-11.6 3.7,-2.5 8.5,-3.7 14.2,-3.5 v 11.2 c -4.2,0 -7.8,0.6 -10.8,1.7 -3,1.2 -5.4,2.9 -7.2,5.1 -1.8,2.2 -3.2,5 -4,8.2 -0.8,3.2 -1.2,6.9 -1.2,11 v 28.7 h -10.6 v -64.4 z"
   id="path16" />
			<path
   class="st1"
   d="m 470.7,318.9 c 0.1,2.4 0.6,4.4 1.6,6 1,1.6 2.3,2.8 3.9,3.8 1.6,1 3.4,1.6 5.5,2.1 2,0.4 4.1,0.6 6.3,0.6 1.7,0 3.4,-0.1 5.2,-0.4 1.8,-0.2 3.5,-0.7 5,-1.4 1.5,-0.7 2.8,-1.6 3.8,-2.9 1,-1.3 1.5,-2.9 1.5,-4.9 0,-2.1 -0.6,-3.8 -1.8,-5 -1.2,-1.3 -2.8,-2.3 -4.7,-3.2 -2,-0.8 -4.2,-1.5 -6.7,-2.1 -2.5,-0.5 -5.1,-1.1 -7.8,-1.7 -2.7,-0.6 -5.2,-1.3 -7.7,-2.1 -2.5,-0.8 -4.7,-1.9 -6.7,-3.2 -2,-1.3 -3.6,-3 -4.8,-5.1 -1.2,-2.1 -1.8,-4.6 -1.8,-7.7 0,-3.2 0.7,-6 2.2,-8.3 1.5,-2.3 3.3,-4.2 5.6,-5.7 2.3,-1.5 4.9,-2.5 7.7,-3.2 2.9,-0.7 5.7,-1.1 8.5,-1.1 3.6,0 6.9,0.3 10,0.9 3.1,0.6 5.9,1.7 8.2,3.2 2.4,1.5 4.3,3.6 5.7,6.2 1.4,2.6 2.2,5.9 2.5,9.8 h -10.6 c -0.2,-2.1 -0.7,-3.8 -1.7,-5.2 -1,-1.4 -2.1,-2.5 -3.5,-3.3 -1.4,-0.8 -2.9,-1.4 -4.6,-1.8 -1.7,-0.4 -3.4,-0.6 -5.2,-0.6 -1.6,0 -3.2,0.1 -4.8,0.4 -1.6,0.3 -3.1,0.7 -4.4,1.3 -1.3,0.6 -2.4,1.5 -3.2,2.6 -0.8,1.1 -1.2,2.4 -1.2,4 0,1.9 0.6,3.5 1.9,4.6 1.3,1.2 2.9,2.2 4.9,2.9 2,0.8 4.2,1.5 6.7,2 2.5,0.5 5,1.1 7.5,1.7 2.7,0.6 5.3,1.3 7.8,2.1 2.5,0.8 4.8,1.9 6.7,3.3 2,1.4 3.5,3.1 4.7,5.2 1.2,2.1 1.8,4.6 1.8,7.7 0,3.8 -0.8,7 -2.4,9.6 -1.6,2.6 -3.7,4.7 -6.4,6.3 -2.6,1.6 -5.6,2.7 -8.8,3.4 -3.3,0.7 -6.5,1 -9.8,1 -3.7,0 -7.1,-0.4 -10.3,-1.2 -3.2,-0.8 -6,-2 -8.5,-3.7 -2.5,-1.7 -4.5,-3.9 -6,-6.7 -1.5,-2.8 -2.3,-6.2 -2.5,-10.2 z"
   id="path17" />
			<path
   class="st1"
   d="m 536.5,263.2 h -10.6 v -13 h 10.6 z m -10.6,11.6 h 10.6 v 64.4 h -10.6 z"
   id="path18" />
			<path
   class="st1"
   d="m 566.4,274.8 h 12.8 v 9.3 h -12.8 v 40 c 0,1.2 0.1,2.2 0.3,3 0.2,0.7 0.6,1.3 1.2,1.7 0.6,0.4 1.4,0.7 2.4,0.8 1,0.1 2.4,0.2 4,0.2 h 4.9 v 9.3 h -8.1 c -2.7,0 -5.1,-0.2 -7,-0.6 -2,-0.4 -3.5,-1.1 -4.7,-2.1 -1.2,-1 -2.1,-2.4 -2.7,-4.2 -0.6,-1.8 -0.9,-4.2 -0.9,-7.2 v -41 h -11 v -9.3 h 11 v -19.3 h 10.6 z"
   id="path19" />
			<path
   class="st1"
   d="m 617.5,347.8 c -1.2,3.2 -2.5,5.8 -3.7,8 -1.2,2.2 -2.5,3.9 -3.9,5.3 -1.4,1.4 -3,2.4 -4.9,3 -1.8,0.6 -3.9,0.9 -6.2,0.9 -1.2,0 -2.5,-0.1 -3.7,-0.2 -1.2,-0.2 -2.5,-0.5 -3.6,-0.9 v -9.7 c 1,0.3 2,0.7 3.1,1 1,0.3 2.1,0.5 3.2,0.5 2.2,0 3.9,-0.5 5.2,-1.5 1.3,-1 2.5,-2.5 3.5,-4.4 l 4.4,-11 -25.5,-64 h 12 l 18.8,52.7 h 0.2 l 18.1,-52.7 h 11.2 z"
   id="path20" />
		</g>
		<g
   id="g28">
			<path
   class="st1"
   d="m 109.1,457.4 c 0,-4.7 0.7,-9.2 2,-13.3 1.3,-4.1 3.3,-7.7 6,-10.7 2.7,-3 5.9,-5.4 9.8,-7.2 3.9,-1.7 8.4,-2.6 13.5,-2.6 5.1,0 9.5,0.9 13.5,2.6 3.9,1.7 7.2,4.1 9.8,7.2 2.7,3 4.7,6.6 6,10.7 1.3,4.1 2,8.5 2,13.3 0,4.7 -0.7,9.1 -2,13.2 -1.3,4.1 -3.3,7.6 -6,10.7 -2.7,3 -5.9,5.4 -9.8,7.2 -3.9,1.7 -8.4,2.6 -13.5,2.6 -5.1,0 -9.7,-0.9 -13.5,-2.6 -3.9,-1.7 -7.1,-4.1 -9.8,-7.2 -2.7,-3 -4.7,-6.6 -6,-10.7 -1.3,-4.1 -2,-8.5 -2,-13.2 z m 11.3,0 c 0,3.9 0.5,7.4 1.6,10.4 1,3 2.5,5.6 4.3,7.6 1.8,2 4,3.6 6.4,4.7 2.4,1.1 5,1.6 7.8,1.6 2.7,0 5.3,-0.5 7.8,-1.6 2.4,-1.1 4.6,-2.6 6.4,-4.7 1.8,-2 3.3,-4.6 4.3,-7.6 1,-3 1.6,-6.5 1.6,-10.4 0,-3.9 -0.5,-7.4 -1.6,-10.4 -1,-3 -2.5,-5.6 -4.3,-7.7 -1.8,-2.1 -4,-3.7 -6.4,-4.7 -2.5,-1.1 -5,-1.6 -7.8,-1.6 -2.7,0 -5.3,0.5 -7.8,1.6 -2.5,1.1 -4.6,2.7 -6.4,4.7 -1.8,2.1 -3.3,4.6 -4.3,7.7 -1.1,3 -1.6,6.5 -1.6,10.4 z"
   id="path21" />
			<path
   class="st1"
   d="m 187.3,434.4 h -10.8 v -9.3 h 10.8 v -9.6 c 0,-5.2 1.5,-9.2 4.5,-11.9 3,-2.7 7.5,-4 13.3,-4 1,0 2.1,0.1 3.4,0.2 1.3,0.2 2.4,0.4 3.4,0.7 v 9.2 c -0.9,-0.3 -1.9,-0.6 -3,-0.7 -1.1,-0.1 -2.1,-0.2 -3,-0.2 -2.6,0 -4.6,0.5 -6,1.5 -1.4,1 -2.1,2.9 -2.1,5.7 v 9 h 12.5 v 9.3 h -12.5 v 55.1 h -10.6 v -55 z"
   id="path22" />
			<path
   class="st1"
   d="m 253.9,400.6 h 16.2 l 28,74.7 28.2,-74.7 h 16.2 v 88.9 h -11.2 v -74 H 331 l -27.8,74 h -10.1 l -27.8,-74 h -0.2 v 74 h -11.2 z"
   id="path23" />
			<path
   class="st1"
   d="m 412.5,489.5 h -10 v -10.2 h -0.2 c -2.2,4 -5.1,6.9 -8.7,8.8 -3.5,1.9 -7.6,2.9 -12.3,2.9 -4.2,0 -7.8,-0.6 -10.6,-1.7 -2.8,-1.2 -5.1,-2.8 -6.9,-4.9 -1.7,-2.1 -3,-4.5 -3.7,-7.4 -0.7,-2.9 -1.1,-6 -1.1,-9.5 v -42.4 h 10.6 v 43.6 c 0,4 1.2,7.1 3.5,9.5 2.3,2.3 5.5,3.5 9.6,3.5 3.2,0 6,-0.5 8.4,-1.5 2.4,-1 4.3,-2.4 5.9,-4.2 1.6,-1.8 2.8,-4 3.6,-6.4 0.8,-2.4 1.2,-5.1 1.2,-8 v -36.4 h 10.6 v 64.3 z"
   id="path24" />
			<path
   class="st1"
   d="m 427.2,425.1 h 10 v 10.2 h 0.3 c 2.2,-4 5.1,-6.9 8.7,-8.8 3.5,-1.9 7.6,-2.9 12.3,-2.9 4.2,0 7.8,0.6 10.6,1.7 2.8,1.2 5.1,2.8 6.9,4.9 1.7,2.1 3,4.5 3.7,7.4 0.7,2.9 1.1,6 1.1,9.5 v 42.4 h -10.6 v -43.6 c 0,-4 -1.2,-7.1 -3.5,-9.5 -2.3,-2.3 -5.5,-3.5 -9.6,-3.5 -3.2,0 -6,0.5 -8.4,1.5 -2.4,1 -4.3,2.4 -5.9,4.2 -1.6,1.8 -2.8,4 -3.6,6.4 -0.8,2.5 -1.2,5.1 -1.2,8 v 36.4 h -10.6 v -64.3 z"
   id="path25" />
			<path
   class="st1"
   d="m 506.4,413.5 h -10.6 v -13 h 10.6 z m -10.6,11.6 h 10.6 v 64.4 h -10.6 z"
   id="path26" />
			<path
   class="st1"
   d="m 565.3,445.8 c -0.8,-4.1 -2.6,-7.2 -5.3,-9.5 -2.7,-2.2 -6.2,-3.4 -10.7,-3.4 -3.8,0 -7,0.7 -9.6,2.1 -2.6,1.4 -4.6,3.3 -6.2,5.6 -1.5,2.3 -2.6,5 -3.3,8 -0.7,3 -1,6.2 -1,9.4 0,3 0.4,5.9 1.1,8.7 0.7,2.8 1.8,5.3 3.3,7.5 1.5,2.2 3.4,4 5.8,5.3 2.4,1.3 5.3,2 8.7,2 5.1,0 9.2,-1.4 12.2,-4.2 3,-2.8 4.8,-6.6 5.5,-11.5 h 10.8 c -1.2,7.9 -4.2,14 -9,18.4 -4.8,4.4 -11.3,6.6 -19.4,6.6 -4.9,0 -9.2,-0.8 -13,-2.4 -3.8,-1.6 -6.9,-3.9 -9.5,-6.8 -2.5,-2.9 -4.4,-6.4 -5.7,-10.4 -1.3,-4 -1.9,-8.4 -1.9,-13.3 0,-4.8 0.6,-9.3 1.9,-13.5 1.2,-4.2 3.1,-7.8 5.7,-11 2.5,-3.1 5.7,-5.6 9.5,-7.3 3.8,-1.8 8.2,-2.7 13.4,-2.7 3.7,0 7.1,0.4 10.3,1.3 3.2,0.9 6,2.2 8.5,4 2.5,1.8 4.5,4.1 6,6.9 1.5,2.8 2.5,6.1 2.9,9.9 h -11 z"
   id="path27" />
			<path
   class="st1"
   d="m 587.2,400.6 h 10.6 v 34 h 0.2 c 0.8,-1.9 2,-3.6 3.6,-5 1.5,-1.4 3.2,-2.6 5,-3.4 1.8,-0.9 3.8,-1.5 5.8,-1.9 2,-0.4 4,-0.6 5.9,-0.6 4.2,0 7.8,0.6 10.6,1.7 2.8,1.2 5.1,2.8 6.9,4.9 1.7,2.1 3,4.5 3.7,7.4 0.7,2.9 1.1,6 1.1,9.5 v 42.4 H 630 V 446 c 0,-4 -1.2,-7.1 -3.5,-9.5 -2.3,-2.3 -5.5,-3.5 -9.6,-3.5 -3.2,0 -6,0.5 -8.4,1.5 -2.4,1 -4.3,2.4 -5.9,4.2 -1.6,1.8 -2.8,4 -3.6,6.4 -0.8,2.5 -1.2,5.1 -1.2,8 v 36.4 h -10.6 z"
   id="path28" />
		</g>
	</g>
</g>
</svg>
